<?xml version="1.0" encoding="utf-8"?>
<!-- Generator: Adobe Illustrator 16.0.0, SVG Export Plug-In . SVG Version: 6.00 Build 0)  -->
<!DOCTYPE svg PUBLIC "-//W3C//DTD SVG 1.1//EN" "http://www.w3.org/Graphics/SVG/1.1/DTD/svg11.dtd">
<svg version="1.1" id="Layer_1" xmlns="http://www.w3.org/2000/svg" xmlns:xlink="http://www.w3.org/1999/xlink" x="0px" y="0px"
	 width="82px" height="22.368px" viewBox="0 0 82 22.368" enable-background="new 0 0 82 22.368" xml:space="preserve">
<g>
	<g>
		<path fill="#FFFFFF" d="M20.616,17.444c0,0,7.081-3.598,10.828-3.055c-1.792-0.009-9.247,3.44-10.828,6.941"/>
	</g>
	<g>
		<path fill="#FFFFFF" d="M0.013,22.188l-0.006-0.543L0,18.423L9.573,4.313c-1.138-0.007-3.977,0-6.017-0.009l0,0
			C0.751,4.307,0.443,1.995,0.44,1.937l0,0V0l15.176,0.003l-0.006,3.69L6.038,17.865l6.882,0.012c0,0,0.108-0.014,0.26-0.012l0,0
			c0.613,0,2.424,0.227,2.431,2.301l0,0c0,1.043,0,1.762,0,1.762l0,0l-0.003,0.26L0.535,22.183l0,0L0.013,22.188L0.013,22.188z"/>
	</g>
	<g>
		<path fill="#FFFFFF" d="M22.598,16.248l-1.497,4.189c0,0.02-0.477,1.743-2.335,1.755l0,0c-1.038,0.002-2.196-0.003-2.196-0.003
			h-0.008H16.25L23.134,4.36l3.114-0.01l6.896,17.849h-0.318l0,0c0,0-0.281,0-1.979,0l0,0h-0.214v-0.014
			c-1.694-0.126-2.293-1.616-2.293-1.646l0,0l-1.466-4.285l-0.138-0.436l-1.964-5.486l-2.021,5.482L22.598,16.248z"/>
	</g>
	<g>
		<path fill="#FFFFFF" d="M45.896,22.181l-0.111-0.129l-6.85-10.049l-0.011,7.656c0,0-0.026,2.327-1.944,2.542l0,0
			c-0.568,0.047-0.96,0.063-1.245,0.063l0,0c-0.581-0.01-0.673-0.042-0.771-0.125l0,0l-0.065-0.065L34.911,4.36l3.521,0.005
			l6.981,10.179c-0.003-1.081-0.003-3.218-0.003-5.091l0,0c-0.004-1.313,0.003-2.49,0.003-3.068l0,0
			c0.024-1.966,2.115-2.018,2.115-2.018h0.018h1.901l-0.012,17.839l-3.358-0.007L45.896,22.181z"/>
	</g>
	<g>
		<path fill="#FFFFFF" d="M52.269,4.371l6.867,0.004c1.952-0.004,3.738,0.519,5.012,1.721l0,0c1.797,1.689,1.93,3.729,1.935,5.849
			l0,0c0.002,0.412,0.002,0.845-0.003,1.275l0,0c0.003,0.438,0.003,0.856,0.003,1.287l0,0c0.002,2.092-0.132,4.154-1.788,5.829l0,0
			l0,0l-0.019,0.027c-0.05,0.045-0.087,0.086-0.128,0.125l0,0l-0.163,0.15l-0.002-0.006c-1.235,1.078-2.916,1.562-4.748,1.572l0,0
			l-0.003,0.005h-6.976L52.269,4.371L52.269,4.371z M56.282,18.745h2.508c1.2,0,1.946-0.347,2.527-0.994l0,0
			c0.608-0.69,0.738-1.894,0.728-4.53l0,0c0.002-2.648-0.115-3.687-0.716-4.379l0,0l0,0c-0.588-0.668-1.337-0.996-2.542-0.996l0,0
			l-2.503-0.008L56.282,18.745L56.282,18.745z"/>
	</g>
	<g>
		<path fill="#FFFFFF" d="M74.771,22.368v-0.01c-3.77-0.096-6.773-2.584-6.775-6.328l0,0l0.012-11.655h2.025
			c0.005,0.012,1.979,0.258,1.989,2.285l0,0c-0.003,1.842-0.003,9.253-0.003,9.253l0,0c0.007,1.907,1.115,2.968,2.973,2.993l0,0
			c1.844-0.024,2.967-1.081,3-2.993l0,0c0,0-0.003-7.306-0.006-9.183l0,0c0.029-2.072,2.229-2.34,2.258-2.343l0,0l1.746-0.001
			v11.648c-0.013,3.754-3.021,6.232-6.791,6.323l0,0v0.01l0,0H74.771L74.771,22.368z"/>
	</g>
</g>
</svg>
